<svg width="107" height="48" viewBox="0 0 107 48" fill="none" xmlns="http://www.w3.org/2000/svg">
<g id="Asset 3 1" clip-path="url(#clip0_2203_13044)">
<g id="Layer 2">
<g id="Layer 1">
<path id="Vector" d="M44.9187 18.2576H40.0315V12.415H36.9053V27.4037H40.0315V20.7991H44.9187V27.4037H48.0472V12.415H44.9187V18.2576Z" fill="#0B1A51"/>
<path id="Vector_2" d="M49.5459 16.9428V27.4034H52.6099L52.6076 16.2085L49.5459 16.9428Z" fill="#0B1A51"/>
<path id="Vector_3" d="M58.3212 15.8702C54.9994 15.8702 53.5859 17.454 53.5859 19.9103C53.5859 21.4734 54.2374 22.6888 55.8672 23.2551C55.347 23.7547 54.5436 24.5788 54.5436 25.5572C54.542 25.9128 54.6581 26.2589 54.8738 26.5417C55.0895 26.8244 55.3926 27.0278 55.736 27.1203C54.1108 27.3942 53.1301 28.0848 53.1094 29.4661C53.1094 31.2041 54.5205 32.2285 58.0173 32.2285C62.1242 32.2285 64.0994 30.9026 64.0994 28.3841C64.0994 26.1028 62.5155 25.2326 60.2549 25.1889L57.9529 25.1244C57.4741 25.1037 57.3221 24.8942 57.3221 24.5604C57.3347 24.219 57.4236 23.8846 57.5823 23.582C57.8125 23.6051 58.0818 23.6051 58.3442 23.6051C61.7766 23.6051 63.0795 22.0397 63.0795 19.9218C63.0731 19.5236 62.9661 19.1335 62.7685 18.7878C62.5709 18.4421 62.2891 18.1519 61.9492 17.9443L64.1661 18.186V16.0221L60.4299 16.1948C59.7484 15.9767 59.0368 15.8672 58.3212 15.8702ZM59.7024 27.8408C60.8972 27.8615 61.2241 28.2092 61.2241 28.8606C61.2241 29.6871 60.3539 30.1429 58.4202 30.1429C56.7927 30.1429 56.1182 29.7722 56.1182 28.9044C56.1059 28.6563 56.1732 28.4109 56.3103 28.2038C56.4474 27.9968 56.647 27.8389 56.8801 27.7533L59.7024 27.8408ZM58.335 21.6253C56.9538 21.6253 56.5532 20.8863 56.5532 19.756C56.5532 18.6257 56.9446 17.8684 58.335 17.8684C59.638 17.8684 60.1168 18.605 60.1375 19.756C60.126 20.8863 59.7347 21.6253 58.3442 21.6253H58.335Z" fill="#0B1A51"/>
<path id="Vector_4" d="M71.3115 15.8703C70.2479 15.8703 69.0739 16.2594 67.8791 17.0421V12.5024L64.8174 13.2391V27.3944H67.8791V19.1922C68.6825 18.7801 69.3777 18.4532 70.1604 18.4532C70.8326 18.4532 71.4197 18.7801 71.4197 19.8667V27.3944H74.4837V19.3004C74.4837 16.805 73.0265 15.8703 71.3115 15.8703Z" fill="#0B1A51"/>
<path id="Vector_5" d="M75.4834 21.9084C75.4834 25.6216 76.5907 27.6635 79.4153 27.6635C80.4693 27.6262 81.4976 27.328 82.408 26.7956V32.1157L85.4697 31.8348V16.4548C83.8853 16.0793 82.2636 15.8832 80.6354 15.8701C76.8738 15.8701 75.4834 18.064 75.4834 21.9084ZM82.4126 18.2804V24.6662C81.7636 24.9929 81.0527 25.1781 80.3269 25.2095C79.1321 25.2095 78.5889 24.4268 78.5889 21.8209C78.5889 18.9526 79.2196 18.1054 80.6745 18.1054C81.2582 18.1068 81.8403 18.1654 82.4126 18.2804Z" fill="#0B1A51"/>
<path id="Vector_6" d="M93.2736 24.4917C92.6493 24.8469 91.9493 25.0481 91.2317 25.0787C90.3108 25.0787 89.9494 24.6183 89.9494 23.6445V16.1514H86.8877V24.1441C86.8877 26.5773 88.1676 27.6639 90.0806 27.6639C91.3399 27.6639 92.4702 27.1874 93.5337 26.5129V27.3946H96.3353V16.1514H93.2736V24.4917Z" fill="#0B1A51"/>
<path id="Vector_7" d="M107 20.9093C107 17.4769 105.589 15.8701 102.373 15.8701C98.8766 15.8701 97.3779 17.9972 97.3779 21.8416C97.3779 25.8817 98.5082 27.6635 102.484 27.6635C103.961 27.6777 105.427 27.4121 106.805 26.8808L106.153 24.687C105.103 25.0403 104.004 25.2312 102.896 25.2533C100.898 25.2533 100.486 24.535 100.463 22.4287H106.959C107 21.9084 107 21.4088 107 20.9093ZM100.463 20.4489C100.506 18.7546 100.985 18.1031 102.353 18.1031C103.72 18.1031 104.111 18.7776 104.111 20.4489H100.463Z" fill="#0B1A51"/>
<path id="Vector_8" d="M52.5617 12.4126L49.5 13.1493V16.211L52.5617 15.4766V12.4126Z" fill="#0B1A51"/>
<path id="Vector_9" d="M4.98051 21.5219C4.88613 21.4736 4.79635 21.4206 4.70427 21.3677L4.72269 21.2549L11.2352 20.4446V6.42969L0.0126953 9.9265V48.0001L11.2352 44.5263V24.8161C9.15259 23.7142 7.0677 22.6162 4.98051 21.5219Z" fill="#00CE7C"/>
<path id="Vector_10" d="M8.34159 21.6945L20.0659 20.3616C20.2156 20.347 20.3665 20.3706 20.5045 20.4302C20.6425 20.4897 20.7632 20.5833 20.8552 20.7023C20.9472 20.8212 21.0075 20.9615 21.0305 21.1101C21.0535 21.2586 21.0385 21.4106 20.9867 21.5518C19.6055 25.265 18.2542 28.9414 16.8937 32.6154H16.8177C16.629 31.8903 16.4379 31.1652 16.2491 30.4377C15.8348 28.8447 15.4273 27.2471 14.9968 25.6587C14.939 25.4669 14.8129 25.3031 14.6423 25.1982C12.6096 24.0818 10.5677 22.9837 8.52805 21.881C8.46129 21.8465 8.39454 21.8073 8.33008 21.7682L8.34159 21.6945Z" fill="#0B1A51"/>
<path id="Vector_11" d="M20.6484 3.4853V19.275L20.828 19.2543C21.036 19.2297 21.2469 19.2581 21.4409 19.3369C21.635 19.4157 21.8059 19.5424 21.9379 19.7051C22.0698 19.8678 22.1583 20.0612 22.1953 20.2674C22.2323 20.4736 22.2165 20.6858 22.1494 20.8842L20.6484 25.2258V41.5934L31.8732 38.0966V0L20.6484 3.4853Z" fill="#00CE7C"/>
</g>
</g>
</g>
<defs>
<clipPath id="clip0_2203_13044">
<rect width="106.988" height="48" fill="white" transform="translate(0.0126953)"/>
</clipPath>
</defs>
</svg>
